<mxfile host="Electron" modified="2024-04-14T05:18:29.329Z" agent="Mozilla/5.0 (X11; Linux x86_64) AppleWebKit/537.36 (KHTML, like Gecko) draw.io/24.0.4 Chrome/120.0.6099.109 Electron/28.1.0 Safari/537.36" etag="P6u8SgyZSpwIR8AQyrj-" version="24.0.4" type="device">
  <diagram name="Page-1" id="lQTjfX6clwnMnwGGohLF">
    <mxGraphModel dx="830" dy="463" grid="1" gridSize="10" guides="1" tooltips="1" connect="1" arrows="1" fold="1" page="1" pageScale="1" pageWidth="1654" pageHeight="1169" math="0" shadow="0">
      <root>
        <mxCell id="0" />
        <mxCell id="1" parent="0" />
        <mxCell id="1GmTXB1KGv5REKphHMlU-1" value="" style="rounded=0;whiteSpace=wrap;html=1;editable=0;" vertex="1" parent="1">
          <mxGeometry x="320" y="340" width="120" height="230" as="geometry" />
        </mxCell>
        <mxCell id="1GmTXB1KGv5REKphHMlU-2" value="&lt;span style=&quot;font-size: 14px;&quot;&gt;SRAM&lt;/span&gt;" style="text;html=1;align=center;verticalAlign=middle;whiteSpace=wrap;rounded=0;" vertex="1" parent="1">
          <mxGeometry x="350" y="310" width="60" height="30" as="geometry" />
        </mxCell>
        <mxCell id="1GmTXB1KGv5REKphHMlU-3" value="&lt;span style=&quot;font-size: 14px;&quot;&gt;MROM&lt;/span&gt;" style="text;html=1;align=center;verticalAlign=middle;whiteSpace=wrap;rounded=0;" vertex="1" parent="1">
          <mxGeometry x="550" y="310" width="60" height="30" as="geometry" />
        </mxCell>
        <mxCell id="1GmTXB1KGv5REKphHMlU-5" value="" style="rounded=0;whiteSpace=wrap;html=1;editable=0;" vertex="1" parent="1">
          <mxGeometry x="520" y="340" width="120" height="150" as="geometry" />
        </mxCell>
        <mxCell id="1GmTXB1KGv5REKphHMlU-6" value="" style="endArrow=none;html=1;rounded=0;exitX=-0.001;exitY=0.167;exitDx=0;exitDy=0;exitPerimeter=0;entryX=0.999;entryY=0.167;entryDx=0;entryDy=0;entryPerimeter=0;" edge="1" parent="1">
          <mxGeometry width="50" height="50" relative="1" as="geometry">
            <mxPoint x="320" y="379" as="sourcePoint" />
            <mxPoint x="440" y="379" as="targetPoint" />
          </mxGeometry>
        </mxCell>
        <mxCell id="1GmTXB1KGv5REKphHMlU-7" value="" style="endArrow=none;html=1;rounded=0;exitX=-0.001;exitY=0.167;exitDx=0;exitDy=0;exitPerimeter=0;entryX=0.999;entryY=0.167;entryDx=0;entryDy=0;entryPerimeter=0;" edge="1" parent="1">
          <mxGeometry width="50" height="50" relative="1" as="geometry">
            <mxPoint x="320" y="420" as="sourcePoint" />
            <mxPoint x="440" y="420" as="targetPoint" />
          </mxGeometry>
        </mxCell>
        <mxCell id="1GmTXB1KGv5REKphHMlU-8" value="" style="endArrow=none;html=1;rounded=0;exitX=-0.001;exitY=0.167;exitDx=0;exitDy=0;exitPerimeter=0;entryX=0.999;entryY=0.167;entryDx=0;entryDy=0;entryPerimeter=0;" edge="1" parent="1">
          <mxGeometry width="50" height="50" relative="1" as="geometry">
            <mxPoint x="320" y="500" as="sourcePoint" />
            <mxPoint x="440" y="500" as="targetPoint" />
          </mxGeometry>
        </mxCell>
        <mxCell id="1GmTXB1KGv5REKphHMlU-9" value="" style="endArrow=none;html=1;rounded=0;exitX=-0.001;exitY=0.167;exitDx=0;exitDy=0;exitPerimeter=0;entryX=0.999;entryY=0.167;entryDx=0;entryDy=0;entryPerimeter=0;" edge="1" parent="1">
          <mxGeometry width="50" height="50" relative="1" as="geometry">
            <mxPoint x="520" y="419.89000000000004" as="sourcePoint" />
            <mxPoint x="640" y="419.89000000000004" as="targetPoint" />
          </mxGeometry>
        </mxCell>
        <mxCell id="1GmTXB1KGv5REKphHMlU-10" value="" style="endArrow=none;html=1;rounded=0;exitX=-0.001;exitY=0.167;exitDx=0;exitDy=0;exitPerimeter=0;entryX=0.999;entryY=0.167;entryDx=0;entryDy=0;entryPerimeter=0;" edge="1" parent="1">
          <mxGeometry width="50" height="50" relative="1" as="geometry">
            <mxPoint x="520" y="459.99999999999994" as="sourcePoint" />
            <mxPoint x="640" y="459.99999999999994" as="targetPoint" />
          </mxGeometry>
        </mxCell>
        <mxCell id="1GmTXB1KGv5REKphHMlU-14" value="&lt;font style=&quot;font-size: 13px;&quot;&gt;data&lt;/font&gt;" style="text;html=1;align=center;verticalAlign=middle;whiteSpace=wrap;rounded=0;" vertex="1" parent="1">
          <mxGeometry x="350" y="346" width="60" height="30" as="geometry" />
        </mxCell>
        <mxCell id="1GmTXB1KGv5REKphHMlU-15" value="&lt;font style=&quot;font-size: 13px;&quot;&gt;bss&lt;/font&gt;" style="text;html=1;align=center;verticalAlign=middle;whiteSpace=wrap;rounded=0;" vertex="1" parent="1">
          <mxGeometry x="350" y="388" width="60" height="30" as="geometry" />
        </mxCell>
        <mxCell id="1GmTXB1KGv5REKphHMlU-16" value="&lt;font style=&quot;font-size: 13px;&quot;&gt;stack&lt;/font&gt;" style="text;html=1;align=center;verticalAlign=middle;whiteSpace=wrap;rounded=0;" vertex="1" parent="1">
          <mxGeometry x="350" y="440" width="60" height="30" as="geometry" />
        </mxCell>
        <mxCell id="1GmTXB1KGv5REKphHMlU-17" value="&lt;font style=&quot;font-size: 13px;&quot;&gt;heap&lt;/font&gt;" style="text;html=1;align=center;verticalAlign=middle;whiteSpace=wrap;rounded=0;" vertex="1" parent="1">
          <mxGeometry x="350" y="520" width="60" height="30" as="geometry" />
        </mxCell>
        <mxCell id="1GmTXB1KGv5REKphHMlU-18" value="&lt;font style=&quot;font-size: 14px;&quot;&gt;text&lt;/font&gt;" style="text;html=1;align=center;verticalAlign=middle;whiteSpace=wrap;rounded=0;" vertex="1" parent="1">
          <mxGeometry x="550" y="366" width="60" height="30" as="geometry" />
        </mxCell>
        <mxCell id="1GmTXB1KGv5REKphHMlU-19" value="&lt;font style=&quot;font-size: 13px;&quot;&gt;rodata&lt;/font&gt;" style="text;html=1;align=center;verticalAlign=middle;whiteSpace=wrap;rounded=0;" vertex="1" parent="1">
          <mxGeometry x="549" y="426" width="60" height="30" as="geometry" />
        </mxCell>
        <mxCell id="1GmTXB1KGv5REKphHMlU-20" value="&lt;font style=&quot;font-size: 13px;&quot;&gt;data&lt;/font&gt;" style="text;html=1;align=center;verticalAlign=middle;whiteSpace=wrap;rounded=0;" vertex="1" parent="1">
          <mxGeometry x="549" y="460" width="60" height="30" as="geometry" />
        </mxCell>
        <mxCell id="1GmTXB1KGv5REKphHMlU-22" value="_sdata" style="text;html=1;align=center;verticalAlign=middle;resizable=0;points=[];autosize=1;strokeColor=none;fillColor=none;" vertex="1" parent="1">
          <mxGeometry x="240" y="320" width="60" height="30" as="geometry" />
        </mxCell>
        <mxCell id="1GmTXB1KGv5REKphHMlU-25" value="_edata&lt;div&gt;_sbss&lt;/div&gt;" style="text;html=1;align=center;verticalAlign=middle;resizable=0;points=[];autosize=1;strokeColor=none;fillColor=none;" vertex="1" parent="1">
          <mxGeometry x="240" y="356" width="60" height="40" as="geometry" />
        </mxCell>
        <mxCell id="1GmTXB1KGv5REKphHMlU-27" value="_ebss&lt;div&gt;_stack_top&lt;/div&gt;" style="text;html=1;align=center;verticalAlign=middle;resizable=0;points=[];autosize=1;strokeColor=none;fillColor=none;" vertex="1" parent="1">
          <mxGeometry x="230" y="400" width="80" height="40" as="geometry" />
        </mxCell>
        <mxCell id="1GmTXB1KGv5REKphHMlU-29" value="_stack_pointer&lt;div&gt;_heap_start&lt;/div&gt;" style="text;html=1;align=center;verticalAlign=middle;resizable=0;points=[];autosize=1;strokeColor=none;fillColor=none;" vertex="1" parent="1">
          <mxGeometry x="213" y="479" width="100" height="40" as="geometry" />
        </mxCell>
        <mxCell id="1GmTXB1KGv5REKphHMlU-31" value="_heap_end" style="text;html=1;align=center;verticalAlign=middle;resizable=0;points=[];autosize=1;strokeColor=none;fillColor=none;" vertex="1" parent="1">
          <mxGeometry x="229" y="553" width="80" height="30" as="geometry" />
        </mxCell>
        <mxCell id="1GmTXB1KGv5REKphHMlU-32" value="" style="edgeStyle=none;orthogonalLoop=1;jettySize=auto;html=1;rounded=0;entryX=1.001;entryY=0.169;entryDx=0;entryDy=0;entryPerimeter=0;startArrow=classic;startFill=1;endArrow=none;endFill=0;" edge="1" parent="1">
          <mxGeometry width="100" relative="1" as="geometry">
            <mxPoint x="320" y="340" as="sourcePoint" />
            <mxPoint x="300" y="340" as="targetPoint" />
            <Array as="points" />
          </mxGeometry>
        </mxCell>
        <mxCell id="1GmTXB1KGv5REKphHMlU-33" value="" style="edgeStyle=none;orthogonalLoop=1;jettySize=auto;html=1;rounded=0;entryX=1.001;entryY=0.169;entryDx=0;entryDy=0;entryPerimeter=0;startArrow=classic;startFill=1;endArrow=none;endFill=0;" edge="1" parent="1">
          <mxGeometry width="100" relative="1" as="geometry">
            <mxPoint x="320" y="379" as="sourcePoint" />
            <mxPoint x="300" y="379" as="targetPoint" />
            <Array as="points" />
          </mxGeometry>
        </mxCell>
        <mxCell id="1GmTXB1KGv5REKphHMlU-34" value="" style="edgeStyle=none;orthogonalLoop=1;jettySize=auto;html=1;rounded=0;entryX=1.001;entryY=0.169;entryDx=0;entryDy=0;entryPerimeter=0;startArrow=classic;startFill=1;endArrow=none;endFill=0;" edge="1" parent="1">
          <mxGeometry width="100" relative="1" as="geometry">
            <mxPoint x="320" y="419.97" as="sourcePoint" />
            <mxPoint x="300" y="419.97" as="targetPoint" />
            <Array as="points" />
          </mxGeometry>
        </mxCell>
        <mxCell id="1GmTXB1KGv5REKphHMlU-35" value="" style="edgeStyle=none;orthogonalLoop=1;jettySize=auto;html=1;rounded=0;entryX=1.001;entryY=0.169;entryDx=0;entryDy=0;entryPerimeter=0;startArrow=classic;startFill=1;endArrow=none;endFill=0;" edge="1" parent="1">
          <mxGeometry width="100" relative="1" as="geometry">
            <mxPoint x="320" y="499.97" as="sourcePoint" />
            <mxPoint x="300" y="499.97" as="targetPoint" />
            <Array as="points" />
          </mxGeometry>
        </mxCell>
        <mxCell id="1GmTXB1KGv5REKphHMlU-36" value="" style="edgeStyle=none;orthogonalLoop=1;jettySize=auto;html=1;rounded=0;entryX=1.001;entryY=0.169;entryDx=0;entryDy=0;entryPerimeter=0;startArrow=classic;startFill=1;endArrow=none;endFill=0;" edge="1" parent="1">
          <mxGeometry width="100" relative="1" as="geometry">
            <mxPoint x="320" y="569.94" as="sourcePoint" />
            <mxPoint x="300" y="569.94" as="targetPoint" />
            <Array as="points" />
          </mxGeometry>
        </mxCell>
        <mxCell id="1GmTXB1KGv5REKphHMlU-37" value="" style="edgeStyle=none;orthogonalLoop=1;jettySize=auto;html=1;rounded=0;entryX=1.001;entryY=0.608;entryDx=0;entryDy=0;entryPerimeter=0;" edge="1" parent="1">
          <mxGeometry width="100" relative="1" as="geometry">
            <mxPoint x="659.88" y="460.15999999999997" as="sourcePoint" />
            <mxPoint x="640" y="460" as="targetPoint" />
            <Array as="points" />
          </mxGeometry>
        </mxCell>
        <mxCell id="1GmTXB1KGv5REKphHMlU-38" value="_sldata" style="text;html=1;align=center;verticalAlign=middle;resizable=0;points=[];autosize=1;strokeColor=none;fillColor=none;" vertex="1" parent="1">
          <mxGeometry x="648" y="444" width="60" height="30" as="geometry" />
        </mxCell>
        <mxCell id="1GmTXB1KGv5REKphHMlU-39" value="" style="endArrow=classic;html=1;rounded=0;exitX=0.002;exitY=0.906;exitDx=0;exitDy=0;exitPerimeter=0;edgeStyle=elbowEdgeStyle;dashed=1;dashPattern=8 8;startArrow=oval;startFill=1;" edge="1" parent="1" source="1GmTXB1KGv5REKphHMlU-5">
          <mxGeometry width="50" height="50" relative="1" as="geometry">
            <mxPoint x="530" y="480" as="sourcePoint" />
            <mxPoint x="440" y="360" as="targetPoint" />
          </mxGeometry>
        </mxCell>
      </root>
    </mxGraphModel>
  </diagram>
</mxfile>
